<mxfile host="app.diagrams.net" agent="Mozilla/5.0 (Macintosh; Intel Mac OS X 10_15_7) AppleWebKit/537.36 (KHTML, like Gecko) Chrome/131.0.0.0 Safari/537.36" version="25.0.3">
  <diagram name="Pagina-1" id="Vi9DWX728hE7CqJ8r88I">
    <mxGraphModel dx="830" dy="1725" grid="1" gridSize="10" guides="1" tooltips="1" connect="1" arrows="1" fold="1" page="1" pageScale="1" pageWidth="827" pageHeight="1169" math="0" shadow="0">
      <root>
        <mxCell id="0" />
        <mxCell id="1" parent="0" />
        <mxCell id="0Mp-qp49nAD-mxDCAxrq-30" style="edgeStyle=orthogonalEdgeStyle;rounded=0;orthogonalLoop=1;jettySize=auto;html=1;exitX=0.5;exitY=1;exitDx=0;exitDy=0;entryX=0.5;entryY=0;entryDx=0;entryDy=0;" parent="1" source="0Mp-qp49nAD-mxDCAxrq-1" target="0Mp-qp49nAD-mxDCAxrq-29" edge="1">
          <mxGeometry relative="1" as="geometry" />
        </mxCell>
        <mxCell id="0Mp-qp49nAD-mxDCAxrq-1" value="start programma" style="rounded=1;whiteSpace=wrap;html=1;" parent="1" vertex="1">
          <mxGeometry x="380" y="-180" width="120" height="40" as="geometry" />
        </mxCell>
        <mxCell id="0Mp-qp49nAD-mxDCAxrq-5" style="edgeStyle=orthogonalEdgeStyle;rounded=0;orthogonalLoop=1;jettySize=auto;html=1;exitX=0.5;exitY=1;exitDx=0;exitDy=0;entryX=0.5;entryY=0;entryDx=0;entryDy=0;" parent="1" source="0Mp-qp49nAD-mxDCAxrq-2" target="0Mp-qp49nAD-mxDCAxrq-4" edge="1">
          <mxGeometry relative="1" as="geometry" />
        </mxCell>
        <mxCell id="0Mp-qp49nAD-mxDCAxrq-2" value="een getal onder de 1000?" style="shape=parallelogram;perimeter=parallelogramPerimeter;whiteSpace=wrap;html=1;fixedSize=1;" parent="1" vertex="1">
          <mxGeometry x="380" y="210" width="120" height="60" as="geometry" />
        </mxCell>
        <mxCell id="0q0iNm4XIV8c_wjNrYMj-5" style="edgeStyle=orthogonalEdgeStyle;rounded=0;orthogonalLoop=1;jettySize=auto;html=1;exitX=0.5;exitY=1;exitDx=0;exitDy=0;entryX=0.5;entryY=0;entryDx=0;entryDy=0;" parent="1" source="0Mp-qp49nAD-mxDCAxrq-4" target="0Mp-qp49nAD-mxDCAxrq-54" edge="1">
          <mxGeometry relative="1" as="geometry" />
        </mxCell>
        <mxCell id="0q0iNm4XIV8c_wjNrYMj-23" style="edgeStyle=orthogonalEdgeStyle;rounded=0;orthogonalLoop=1;jettySize=auto;html=1;exitX=1;exitY=0.5;exitDx=0;exitDy=0;entryX=0.5;entryY=1;entryDx=0;entryDy=0;" parent="1" source="0Mp-qp49nAD-mxDCAxrq-4" target="0q0iNm4XIV8c_wjNrYMj-22" edge="1">
          <mxGeometry relative="1" as="geometry" />
        </mxCell>
        <mxCell id="0Mp-qp49nAD-mxDCAxrq-4" value="geraden getal == geheim getal" style="rhombus;whiteSpace=wrap;html=1;" parent="1" vertex="1">
          <mxGeometry x="385" y="310" width="110" height="100" as="geometry" />
        </mxCell>
        <mxCell id="0Mp-qp49nAD-mxDCAxrq-6" value="einde programma" style="rounded=1;whiteSpace=wrap;html=1;" parent="1" vertex="1">
          <mxGeometry x="130" y="-180" width="120" height="40" as="geometry" />
        </mxCell>
        <mxCell id="0Mp-qp49nAD-mxDCAxrq-9" value="True" style="text;html=1;align=center;verticalAlign=middle;resizable=0;points=[];autosize=1;strokeColor=none;fillColor=none;" parent="1" vertex="1">
          <mxGeometry x="527.5" y="330" width="50" height="30" as="geometry" />
        </mxCell>
        <mxCell id="0q0iNm4XIV8c_wjNrYMj-17" style="edgeStyle=orthogonalEdgeStyle;rounded=0;orthogonalLoop=1;jettySize=auto;html=1;exitX=0.5;exitY=0;exitDx=0;exitDy=0;entryX=0.5;entryY=1;entryDx=0;entryDy=0;" parent="1" target="QnT2KiwIGmZ0Z-Tedl4z-6" edge="1">
          <mxGeometry relative="1" as="geometry">
            <mxPoint x="620" y="270" as="sourcePoint" />
          </mxGeometry>
        </mxCell>
        <mxCell id="PDHZY7sDQtLJ1hKzqnqk-6" style="edgeStyle=orthogonalEdgeStyle;rounded=0;orthogonalLoop=1;jettySize=auto;html=1;exitX=0.5;exitY=1;exitDx=0;exitDy=0;" parent="1" source="6q9JJo2ONripnRaMFtRy-1" target="0Mp-qp49nAD-mxDCAxrq-2" edge="1">
          <mxGeometry relative="1" as="geometry" />
        </mxCell>
        <mxCell id="0q0iNm4XIV8c_wjNrYMj-62" style="edgeStyle=orthogonalEdgeStyle;rounded=0;orthogonalLoop=1;jettySize=auto;html=1;exitX=0;exitY=0;exitDx=0;exitDy=0;entryX=1;entryY=0.5;entryDx=0;entryDy=0;" parent="1" source="0Mp-qp49nAD-mxDCAxrq-29" target="0Mp-qp49nAD-mxDCAxrq-6" edge="1">
          <mxGeometry relative="1" as="geometry">
            <Array as="points">
              <mxPoint x="415" y="-90" />
              <mxPoint x="330" y="-90" />
              <mxPoint x="330" y="-160" />
            </Array>
          </mxGeometry>
        </mxCell>
        <mxCell id="0Mp-qp49nAD-mxDCAxrq-29" value="speel rondes &amp;lt; 20" style="rhombus;whiteSpace=wrap;html=1;" parent="1" vertex="1">
          <mxGeometry x="390" y="-80" width="100" height="90" as="geometry" />
        </mxCell>
        <mxCell id="0Mp-qp49nAD-mxDCAxrq-47" value="True" style="text;html=1;align=center;verticalAlign=middle;resizable=0;points=[];autosize=1;strokeColor=none;fillColor=none;rotation=90;" parent="1" vertex="1">
          <mxGeometry x="435" y="275" width="50" height="30" as="geometry" />
        </mxCell>
        <mxCell id="0q0iNm4XIV8c_wjNrYMj-6" style="edgeStyle=orthogonalEdgeStyle;rounded=0;orthogonalLoop=1;jettySize=auto;html=1;exitX=0.5;exitY=1;exitDx=0;exitDy=0;" parent="1" source="0Mp-qp49nAD-mxDCAxrq-54" edge="1">
          <mxGeometry relative="1" as="geometry">
            <mxPoint x="439.9354838709678" y="630" as="targetPoint" />
          </mxGeometry>
        </mxCell>
        <mxCell id="0q0iNm4XIV8c_wjNrYMj-7" style="edgeStyle=orthogonalEdgeStyle;rounded=0;orthogonalLoop=1;jettySize=auto;html=1;exitX=1;exitY=0.5;exitDx=0;exitDy=0;" parent="1" source="0Mp-qp49nAD-mxDCAxrq-54" edge="1">
          <mxGeometry relative="1" as="geometry">
            <mxPoint x="549.9999999999998" y="504.80645161290295" as="targetPoint" />
          </mxGeometry>
        </mxCell>
        <mxCell id="0Mp-qp49nAD-mxDCAxrq-54" value="geraden getal &amp;lt; geheim getal" style="rhombus;whiteSpace=wrap;html=1;" parent="1" vertex="1">
          <mxGeometry x="385" y="450" width="110" height="110" as="geometry" />
        </mxCell>
        <mxCell id="0Mp-qp49nAD-mxDCAxrq-71" value="False" style="text;html=1;align=center;verticalAlign=middle;resizable=0;points=[];autosize=1;strokeColor=none;fillColor=none;rotation=-90;" parent="1" vertex="1">
          <mxGeometry x="395" y="405" width="50" height="30" as="geometry" />
        </mxCell>
        <mxCell id="kbjacZDm0LFDy7Dmh8YF-1" style="edgeStyle=orthogonalEdgeStyle;rounded=0;orthogonalLoop=1;jettySize=auto;html=1;exitX=0.5;exitY=1;exitDx=0;exitDy=0;" parent="1" source="0Mp-qp49nAD-mxDCAxrq-29" target="0Mp-qp49nAD-mxDCAxrq-29" edge="1">
          <mxGeometry relative="1" as="geometry" />
        </mxCell>
        <mxCell id="0q0iNm4XIV8c_wjNrYMj-18" style="edgeStyle=orthogonalEdgeStyle;rounded=0;orthogonalLoop=1;jettySize=auto;html=1;exitX=0.5;exitY=0;exitDx=0;exitDy=0;entryX=0.5;entryY=1;entryDx=0;entryDy=0;" parent="1" source="QnT2KiwIGmZ0Z-Tedl4z-6" target="QnT2KiwIGmZ0Z-Tedl4z-7" edge="1">
          <mxGeometry relative="1" as="geometry" />
        </mxCell>
        <mxCell id="QnT2KiwIGmZ0Z-Tedl4z-6" value="score + 1" style="rounded=0;whiteSpace=wrap;html=1;" parent="1" vertex="1">
          <mxGeometry x="565" y="170" width="110" height="40" as="geometry" />
        </mxCell>
        <mxCell id="QnT2KiwIGmZ0Z-Tedl4z-8" style="edgeStyle=orthogonalEdgeStyle;rounded=0;orthogonalLoop=1;jettySize=auto;html=1;exitX=0.5;exitY=0;exitDx=0;exitDy=0;entryX=1;entryY=0.5;entryDx=0;entryDy=0;" parent="1" source="QnT2KiwIGmZ0Z-Tedl4z-7" target="0Mp-qp49nAD-mxDCAxrq-29" edge="1">
          <mxGeometry relative="1" as="geometry" />
        </mxCell>
        <mxCell id="QnT2KiwIGmZ0Z-Tedl4z-7" value="aantal geraden rondes + 1" style="rounded=0;whiteSpace=wrap;html=1;" parent="1" vertex="1">
          <mxGeometry x="577.5" y="55" width="85" height="45" as="geometry" />
        </mxCell>
        <mxCell id="0q0iNm4XIV8c_wjNrYMj-57" style="edgeStyle=orthogonalEdgeStyle;rounded=0;orthogonalLoop=1;jettySize=auto;html=1;exitX=1;exitY=0.5;exitDx=0;exitDy=0;entryX=0;entryY=0.5;entryDx=0;entryDy=0;" parent="1" source="PDHZY7sDQtLJ1hKzqnqk-1" target="0Mp-qp49nAD-mxDCAxrq-29" edge="1">
          <mxGeometry relative="1" as="geometry" />
        </mxCell>
        <mxCell id="0q0iNm4XIV8c_wjNrYMj-60" style="edgeStyle=orthogonalEdgeStyle;rounded=0;orthogonalLoop=1;jettySize=auto;html=1;exitX=0.5;exitY=0;exitDx=0;exitDy=0;entryX=0.5;entryY=1;entryDx=0;entryDy=0;" parent="1" source="PDHZY7sDQtLJ1hKzqnqk-1" target="0Mp-qp49nAD-mxDCAxrq-6" edge="1">
          <mxGeometry relative="1" as="geometry" />
        </mxCell>
        <mxCell id="PDHZY7sDQtLJ1hKzqnqk-1" value="nog een keer raden?" style="shape=parallelogram;perimeter=parallelogramPerimeter;whiteSpace=wrap;html=1;fixedSize=1;" parent="1" vertex="1">
          <mxGeometry x="130" y="-65" width="120" height="60" as="geometry" />
        </mxCell>
        <mxCell id="6q9JJo2ONripnRaMFtRy-2" value="" style="edgeStyle=orthogonalEdgeStyle;rounded=0;orthogonalLoop=1;jettySize=auto;html=1;exitX=0.5;exitY=1;exitDx=0;exitDy=0;" parent="1" source="0Mp-qp49nAD-mxDCAxrq-29" target="6q9JJo2ONripnRaMFtRy-1" edge="1">
          <mxGeometry relative="1" as="geometry">
            <mxPoint x="440" y="10" as="sourcePoint" />
            <mxPoint x="440" y="200" as="targetPoint" />
          </mxGeometry>
        </mxCell>
        <mxCell id="0q0iNm4XIV8c_wjNrYMj-49" value="" style="edgeStyle=orthogonalEdgeStyle;rounded=0;orthogonalLoop=1;jettySize=auto;html=1;" parent="1" source="6q9JJo2ONripnRaMFtRy-1" target="0q0iNm4XIV8c_wjNrYMj-48" edge="1">
          <mxGeometry relative="1" as="geometry" />
        </mxCell>
        <mxCell id="6q9JJo2ONripnRaMFtRy-1" value="aantal geraden rondes == 10 of getal geraden" style="rhombus;whiteSpace=wrap;html=1;" parent="1" vertex="1">
          <mxGeometry x="387.5" y="23.75" width="105" height="107.5" as="geometry" />
        </mxCell>
        <mxCell id="0q0iNm4XIV8c_wjNrYMj-8" value="True" style="text;html=1;align=center;verticalAlign=middle;resizable=0;points=[];autosize=1;strokeColor=none;fillColor=none;" parent="1" vertex="1">
          <mxGeometry x="490" y="478" width="50" height="30" as="geometry" />
        </mxCell>
        <mxCell id="0q0iNm4XIV8c_wjNrYMj-9" value="False" style="text;html=1;align=center;verticalAlign=middle;resizable=0;points=[];autosize=1;strokeColor=none;fillColor=none;rotation=-90;" parent="1" vertex="1">
          <mxGeometry x="400" y="570" width="50" height="30" as="geometry" />
        </mxCell>
        <mxCell id="0q0iNm4XIV8c_wjNrYMj-10" value="True" style="text;html=1;align=center;verticalAlign=middle;resizable=0;points=[];autosize=1;strokeColor=none;fillColor=none;" parent="1" vertex="1">
          <mxGeometry x="345" y="50" width="50" height="30" as="geometry" />
        </mxCell>
        <mxCell id="0q0iNm4XIV8c_wjNrYMj-11" value="False" style="text;html=1;align=center;verticalAlign=middle;resizable=0;points=[];autosize=1;strokeColor=none;fillColor=none;rotation=90;" parent="1" vertex="1">
          <mxGeometry x="435" y="140" width="50" height="30" as="geometry" />
        </mxCell>
        <mxCell id="oTa_rWTv0XmYKS1Rh3RD-2" style="edgeStyle=orthogonalEdgeStyle;rounded=0;orthogonalLoop=1;jettySize=auto;html=1;exitX=0.5;exitY=1;exitDx=0;exitDy=0;entryX=0.5;entryY=0;entryDx=0;entryDy=0;" edge="1" parent="1" source="0q0iNm4XIV8c_wjNrYMj-12" target="oTa_rWTv0XmYKS1Rh3RD-1">
          <mxGeometry relative="1" as="geometry" />
        </mxCell>
        <mxCell id="0q0iNm4XIV8c_wjNrYMj-12" value="speel rondes + 1" style="rounded=0;whiteSpace=wrap;html=1;" parent="1" vertex="1">
          <mxGeometry x="217.5" y="200" width="77.5" height="40" as="geometry" />
        </mxCell>
        <mxCell id="0q0iNm4XIV8c_wjNrYMj-26" style="edgeStyle=orthogonalEdgeStyle;rounded=0;orthogonalLoop=1;jettySize=auto;html=1;exitX=1;exitY=0.5;exitDx=0;exitDy=0;entryX=0;entryY=0.5;entryDx=0;entryDy=0;" parent="1" source="0q0iNm4XIV8c_wjNrYMj-21" edge="1">
          <mxGeometry relative="1" as="geometry">
            <mxPoint x="530" y="660" as="targetPoint" />
          </mxGeometry>
        </mxCell>
        <mxCell id="0q0iNm4XIV8c_wjNrYMj-21" value="het getal is lager" style="ellipse;whiteSpace=wrap;html=1;aspect=fixed;" parent="1" vertex="1">
          <mxGeometry x="400" y="620" width="80" height="80" as="geometry" />
        </mxCell>
        <mxCell id="0q0iNm4XIV8c_wjNrYMj-22" value="&lt;meta charset=&quot;utf-8&quot;&gt;&lt;span style=&quot;color: rgb(0, 0, 0); font-family: Helvetica; font-size: 12px; font-style: normal; font-variant-ligatures: normal; font-variant-caps: normal; font-weight: 400; letter-spacing: normal; orphans: 2; text-align: center; text-indent: 0px; text-transform: none; widows: 2; word-spacing: 0px; -webkit-text-stroke-width: 0px; white-space: normal; background-color: rgb(251, 251, 251); text-decoration-thickness: initial; text-decoration-style: initial; text-decoration-color: initial; display: inline !important; float: none;&quot;&gt;geraden&lt;/span&gt;" style="ellipse;whiteSpace=wrap;html=1;aspect=fixed;" parent="1" vertex="1">
          <mxGeometry x="585" y="255" width="70" height="70" as="geometry" />
        </mxCell>
        <mxCell id="0q0iNm4XIV8c_wjNrYMj-25" style="edgeStyle=orthogonalEdgeStyle;rounded=0;orthogonalLoop=1;jettySize=auto;html=1;exitX=0.5;exitY=1;exitDx=0;exitDy=0;entryX=0.5;entryY=0;entryDx=0;entryDy=0;" parent="1" source="0q0iNm4XIV8c_wjNrYMj-24" target="0q0iNm4XIV8c_wjNrYMj-41" edge="1">
          <mxGeometry relative="1" as="geometry">
            <mxPoint x="590" y="602.5" as="targetPoint" />
          </mxGeometry>
        </mxCell>
        <mxCell id="0q0iNm4XIV8c_wjNrYMj-24" value="het getal is hoger" style="ellipse;whiteSpace=wrap;html=1;aspect=fixed;" parent="1" vertex="1">
          <mxGeometry x="550" y="465" width="80" height="80" as="geometry" />
        </mxCell>
        <mxCell id="0q0iNm4XIV8c_wjNrYMj-30" value="" style="edgeStyle=orthogonalEdgeStyle;rounded=0;orthogonalLoop=1;jettySize=auto;html=1;" parent="1" source="0q0iNm4XIV8c_wjNrYMj-27" target="0q0iNm4XIV8c_wjNrYMj-29" edge="1">
          <mxGeometry relative="1" as="geometry" />
        </mxCell>
        <mxCell id="0q0iNm4XIV8c_wjNrYMj-32" value="" style="edgeStyle=orthogonalEdgeStyle;rounded=0;orthogonalLoop=1;jettySize=auto;html=1;" parent="1" source="0q0iNm4XIV8c_wjNrYMj-27" target="0q0iNm4XIV8c_wjNrYMj-31" edge="1">
          <mxGeometry relative="1" as="geometry" />
        </mxCell>
        <mxCell id="0q0iNm4XIV8c_wjNrYMj-27" value="geraden getal &amp;lt; 20" style="rhombus;whiteSpace=wrap;html=1;" parent="1" vertex="1">
          <mxGeometry x="545" y="750" width="90" height="90" as="geometry" />
        </mxCell>
        <mxCell id="0q0iNm4XIV8c_wjNrYMj-34" value="" style="edgeStyle=orthogonalEdgeStyle;rounded=0;orthogonalLoop=1;jettySize=auto;html=1;" parent="1" source="0q0iNm4XIV8c_wjNrYMj-29" target="0q0iNm4XIV8c_wjNrYMj-33" edge="1">
          <mxGeometry relative="1" as="geometry" />
        </mxCell>
        <mxCell id="0q0iNm4XIV8c_wjNrYMj-29" value="geraden getal &amp;lt; 50" style="rhombus;whiteSpace=wrap;html=1;" parent="1" vertex="1">
          <mxGeometry x="542.5" y="880" width="95" height="90" as="geometry" />
        </mxCell>
        <mxCell id="0q0iNm4XIV8c_wjNrYMj-39" value="" style="edgeStyle=orthogonalEdgeStyle;rounded=0;orthogonalLoop=1;jettySize=auto;html=1;" parent="1" source="0q0iNm4XIV8c_wjNrYMj-31" target="0q0iNm4XIV8c_wjNrYMj-38" edge="1">
          <mxGeometry relative="1" as="geometry" />
        </mxCell>
        <mxCell id="0q0iNm4XIV8c_wjNrYMj-31" value="je bent heel warm" style="ellipse;whiteSpace=wrap;html=1;" parent="1" vertex="1">
          <mxGeometry x="400" y="755" width="80" height="80" as="geometry" />
        </mxCell>
        <mxCell id="0q0iNm4XIV8c_wjNrYMj-40" style="edgeStyle=orthogonalEdgeStyle;rounded=0;orthogonalLoop=1;jettySize=auto;html=1;exitX=0;exitY=0.5;exitDx=0;exitDy=0;entryX=0.5;entryY=1;entryDx=0;entryDy=0;" parent="1" source="0q0iNm4XIV8c_wjNrYMj-33" target="0q0iNm4XIV8c_wjNrYMj-38" edge="1">
          <mxGeometry relative="1" as="geometry" />
        </mxCell>
        <mxCell id="0q0iNm4XIV8c_wjNrYMj-33" value="je bent warm" style="ellipse;whiteSpace=wrap;html=1;" parent="1" vertex="1">
          <mxGeometry x="400" y="885" width="80" height="80" as="geometry" />
        </mxCell>
        <mxCell id="0q0iNm4XIV8c_wjNrYMj-54" style="edgeStyle=orthogonalEdgeStyle;rounded=0;orthogonalLoop=1;jettySize=auto;html=1;exitX=0.5;exitY=0;exitDx=0;exitDy=0;" parent="1" source="0q0iNm4XIV8c_wjNrYMj-38" target="PDHZY7sDQtLJ1hKzqnqk-1" edge="1">
          <mxGeometry relative="1" as="geometry" />
        </mxCell>
        <mxCell id="0q0iNm4XIV8c_wjNrYMj-38" value="aantal geraden rondes + 1" style="whiteSpace=wrap;html=1;" parent="1" vertex="1">
          <mxGeometry x="145" y="767.5" width="90" height="55" as="geometry" />
        </mxCell>
        <mxCell id="0q0iNm4XIV8c_wjNrYMj-42" style="edgeStyle=orthogonalEdgeStyle;rounded=0;orthogonalLoop=1;jettySize=auto;html=1;exitX=0.5;exitY=1;exitDx=0;exitDy=0;entryX=0.5;entryY=0;entryDx=0;entryDy=0;" parent="1" source="0q0iNm4XIV8c_wjNrYMj-41" target="0q0iNm4XIV8c_wjNrYMj-27" edge="1">
          <mxGeometry relative="1" as="geometry" />
        </mxCell>
        <mxCell id="0q0iNm4XIV8c_wjNrYMj-41" value="&lt;meta charset=&quot;utf-8&quot;&gt;&lt;span style=&quot;color: rgb(0, 0, 0); font-family: Helvetica; font-size: 12px; font-style: normal; font-variant-ligatures: normal; font-variant-caps: normal; font-weight: 400; letter-spacing: normal; orphans: 2; text-align: center; text-indent: 0px; text-transform: none; widows: 2; word-spacing: 0px; -webkit-text-stroke-width: 0px; white-space: normal; background-color: rgb(251, 251, 251); text-decoration-thickness: initial; text-decoration-style: initial; text-decoration-color: initial; display: inline !important; float: none;&quot;&gt;abs(geraden getal - geheim getal)&lt;/span&gt;" style="rounded=0;whiteSpace=wrap;html=1;" parent="1" vertex="1">
          <mxGeometry x="530" y="630" width="120" height="60" as="geometry" />
        </mxCell>
        <mxCell id="0q0iNm4XIV8c_wjNrYMj-52" value="" style="edgeStyle=orthogonalEdgeStyle;rounded=0;orthogonalLoop=1;jettySize=auto;html=1;" parent="1" source="0q0iNm4XIV8c_wjNrYMj-48" target="0q0iNm4XIV8c_wjNrYMj-51" edge="1">
          <mxGeometry relative="1" as="geometry" />
        </mxCell>
        <mxCell id="0q0iNm4XIV8c_wjNrYMj-48" value="nieuw getal" style="whiteSpace=wrap;html=1;" parent="1" vertex="1">
          <mxGeometry x="220" y="40" width="75" height="37.5" as="geometry" />
        </mxCell>
        <mxCell id="0q0iNm4XIV8c_wjNrYMj-53" style="edgeStyle=orthogonalEdgeStyle;rounded=0;orthogonalLoop=1;jettySize=auto;html=1;exitX=0.5;exitY=1;exitDx=0;exitDy=0;entryX=0.5;entryY=0;entryDx=0;entryDy=0;" parent="1" source="0q0iNm4XIV8c_wjNrYMj-51" target="0q0iNm4XIV8c_wjNrYMj-12" edge="1">
          <mxGeometry relative="1" as="geometry" />
        </mxCell>
        <mxCell id="0q0iNm4XIV8c_wjNrYMj-51" value="je hebt het getal (score) keer geraden" style="ellipse;whiteSpace=wrap;html=1;" parent="1" vertex="1">
          <mxGeometry x="217.5" y="100" width="80" height="80" as="geometry" />
        </mxCell>
        <mxCell id="0q0iNm4XIV8c_wjNrYMj-55" value="True" style="text;html=1;align=center;verticalAlign=middle;resizable=0;points=[];autosize=1;strokeColor=none;fillColor=none;" parent="1" vertex="1">
          <mxGeometry x="495" y="768" width="50" height="30" as="geometry" />
        </mxCell>
        <mxCell id="0q0iNm4XIV8c_wjNrYMj-56" value="False" style="text;html=1;align=center;verticalAlign=middle;resizable=0;points=[];autosize=1;strokeColor=none;fillColor=none;" parent="1" vertex="1">
          <mxGeometry x="495" y="898" width="50" height="30" as="geometry" />
        </mxCell>
        <mxCell id="0q0iNm4XIV8c_wjNrYMj-59" value="Ja" style="text;html=1;align=center;verticalAlign=middle;resizable=0;points=[];autosize=1;strokeColor=none;fillColor=none;" parent="1" vertex="1">
          <mxGeometry x="300" y="-62" width="40" height="30" as="geometry" />
        </mxCell>
        <mxCell id="0q0iNm4XIV8c_wjNrYMj-61" value="Nee" style="text;html=1;align=center;verticalAlign=middle;resizable=0;points=[];autosize=1;strokeColor=none;fillColor=none;rotation=90;" parent="1" vertex="1">
          <mxGeometry x="185" y="-110" width="50" height="30" as="geometry" />
        </mxCell>
        <mxCell id="0q0iNm4XIV8c_wjNrYMj-63" value="False" style="text;html=1;align=center;verticalAlign=middle;resizable=0;points=[];autosize=1;strokeColor=none;fillColor=none;" parent="1" vertex="1">
          <mxGeometry x="345" y="-112" width="50" height="30" as="geometry" />
        </mxCell>
        <mxCell id="0q0iNm4XIV8c_wjNrYMj-64" value="True" style="text;html=1;align=center;verticalAlign=middle;resizable=0;points=[];autosize=1;strokeColor=none;fillColor=none;rotation=90;" parent="1" vertex="1">
          <mxGeometry x="435" width="50" height="30" as="geometry" />
        </mxCell>
        <mxCell id="oTa_rWTv0XmYKS1Rh3RD-4" style="edgeStyle=orthogonalEdgeStyle;rounded=0;orthogonalLoop=1;jettySize=auto;html=1;exitX=1;exitY=0.5;exitDx=0;exitDy=0;entryX=0;entryY=0.5;entryDx=0;entryDy=0;" edge="1" parent="1" source="oTa_rWTv0XmYKS1Rh3RD-1" target="0Mp-qp49nAD-mxDCAxrq-2">
          <mxGeometry relative="1" as="geometry" />
        </mxCell>
        <mxCell id="oTa_rWTv0XmYKS1Rh3RD-1" value="aantal geraden rondes resetten" style="rounded=0;whiteSpace=wrap;html=1;" vertex="1" parent="1">
          <mxGeometry x="212.5" y="265" width="90" height="40" as="geometry" />
        </mxCell>
      </root>
    </mxGraphModel>
  </diagram>
</mxfile>
